<svg xmlns="http://www.w3.org/2000/svg" viewBox="0 0 600 600" fill="none">
  <circle cx="300" cy="300" r="275" style="fill:#0a0a0b" />
  <path class="moon" rx="0" ry="0" d="M398.489,383.156C345.031,437.941,246.483,458.554,171.372,438.458C85.596,415.509,53,368.563,53,368.563C53,368.563,206.715,399.467,316.562,309.132C428.911,216.74,436.068,89,436.068,89C436.068,89,540.331,237.792,398.489,383.156ZZ" style="fill:#fff"/>
  <path class="highlights" rx="0" ry="0" d="M381.649,460.243C377.924,453.307,380.299,456.018,380.299,447.57C380.299,440.739,379.732,429.665,378.409,414.135C377.572,404.319,378.409,409.191,378.409,399.305C378.409,395.53,379.522,394.004,378.409,393.642C364.041,388.971,369.316,396.794,355.188,391.755C351.676,390.502,350.692,380.131,351.948,372.611C352.853,367.189,352.079,369.361,355.188,364.791C358.56,359.834,358.486,363.352,361.668,358.32C362.806,356.521,360.409,355.863,361.668,354.545C367.79,348.134,364.728,350.889,372.739,346.726C376.611,344.712,376.002,340.857,378.409,335.94C379.962,332.768,383.053,330.69,384.079,325.424C385.542,317.917,384.104,320.745,388.669,314.909C393.104,309.24,391.234,311.991,397.58,308.168C401.675,305.7,400.133,307.811,404.33,305.471C407.873,303.497,405.553,302.577,409.19,301.696C423.374,298.263,431.107,299.53,431.061,299C440.828,411.339,450.199,361.049,423.771,469.41C423.018,472.499,412.048,470.91,390.289,466.175C383.966,464.799,384.585,465.71,381.649,460.243ZL381.649,460.243Z"  style="fill:#202527"/>
  <path class="shadows" rx="0" ry="0" d="M409.03,301.701C409.03,296.313,405.256,294.818,405.804,292.91C408.073,285.01,402.498,283.975,397.276,282.605C395.071,282.026,393.152,281.605,391.959,280.036C391.044,277.694,391.719,276.262,392.465,275.028C392.87,274.36,393.434,273.062,392.465,273.933C391.959,271.039,392.465,270.564,394.364,268.808C394.679,268.696,393.93,267.072,394.913,267.072C393.93,266.637,394.036,266.065,394.511,264.503C394.587,264.253,394.309,263.164,394.511,262.24C394.679,261.474,394.821,261.009,393.93,260.504C391.671,259.224,391.164,258.433,391.318,257.336C391.522,255.878,392.408,254.571,393.152,253.866C396.948,250.263,398.005,250.734,400.174,248.969C400.901,248.378,400.8,246.933,400.174,247.167C400.021,246.096,400.083,246.146,401.015,245.518C400.612,242.689,403.727,242.747,406.611,236.918C408.3,233.504,406.942,234.584,410.031,232.066C410.076,231.969,409.982,232.058,409.584,231.886C412.152,228.766,413.249,228.171,414.414,227.819C415.113,227.608,417.699,225.738,424.087,226C434.056,226.409,434.319,227.299,438.951,228.825C442.734,229.482,445.406,232.123,447.116,233.321C451.562,236.44,455.683,241.742,456.352,248.63C456.861,253.872,455.213,258.418,454.739,259.675C452.704,265.063,454.197,262.729,450.974,267.487C448.055,271.798,445.898,272.138,444.79,273.933C442.13,278.247,442.534,276.057,440.488,280.688C439.413,283.124,435.111,296.313,439.413,296.313C441.194,296.313,441.27,298.344,444.79,303.102C448.978,308.761,449.361,308.595,450.974,311.938C454.473,319.19,452.49,315.939,452.857,324.061C453.745,343.777,452.737,333.94,452.857,353.695C453.275,422.662,481.68,403.016,453.663,457.144C441.707,480.243,412.912,486.115,392.898,469.537C383.789,461.991,387.322,456.832,391.959,446.982C393.649,443.39,382.905,433.583,381.605,423.572C383.523,425.297,384.954,428.453,387.789,428.453C385.753,423.312,380.91,405.083,380.91,401.109C380.91,398.844,386.151,391.863,380.91,393.372C376.173,394.736,380.233,394.035,375.69,397.338C371.092,400.68,373.288,400.569,367.893,401.109C364.326,401.467,357.797,398.305,355.794,395.183C354.571,393.276,355.664,393.829,355.794,391.142C356.202,382.694,353.295,385.638,356.6,378.48C357.673,376.157,352.61,366.108,363.608,363.124C363.076,367.099,363.608,369.827,360.229,369.827C359.192,371.655,364.93,373.336,365.473,369.827C366.203,365.111,362.247,357.736,367.893,357.736C369.327,357.736,368.61,360.161,370.044,360.161C372.733,360.161,371.563,355.568,381.605,352.618C382.701,352.296,382.36,350.717,381.605,350.193C380.03,349.1,378.11,350.193,378.11,350.193C378.11,348.756,379.116,349.101,381.605,348.038C381.605,336.173,384.129,324.231,392.102,318.943C394.382,317.431,397.973,313.578,401.31,312.964C393.238,320.939,386.552,328.056,386.552,340.027C387.227,340.982,384.898,346.363,385.548,346.058C387.789,345.006,390.405,346.945,394.511,343.189C392.335,345.179,389.564,344.862,387.789,342.38C386.996,341.27,390.106,336.057,400.695,331.335C405.341,329.264,403.727,330.486,406.611,326.486C400.853,326.486,399.104,328.196,395.503,330.934C393.507,329.276,396.789,325.379,404.191,318.943C415.79,308.856,414.041,318.208,424.894,307.628C427.305,305.277,425.592,300.239,424.087,300.877C420.666,302.325,416.331,301.992,415.737,302.477C414.52,303.472,419.658,304.34,414.677,305.473C407.973,306.997,411.426,309.679,405.357,312.486C402.096,309.532,402.929,306.512,406.611,305.991C408.765,303.62,409.03,302.855,409.03,301.701ZL409.03,301.701Z" style="fill:#0a0a0b"/>
</svg>
